<?xml version="1.0" encoding="UTF-8" standalone="no"?>
<!DOCTYPE svg PUBLIC "-//W3C//DTD SVG 1.1//EN"
 "http://www.w3.org/Graphics/SVG/1.1/DTD/svg11.dtd">
<!-- Generated by graphviz version 7.1.0 (20230121.1956)
 -->
<!-- Title: ArchitectureDiagram Pages: 1 -->
<svg width="604pt" height="715pt"
 viewBox="0.00 0.00 604.00 715.00" xmlns="http://www.w3.org/2000/svg" xmlns:xlink="http://www.w3.org/1999/xlink">
<g id="graph0" class="graph" transform="scale(1 1) rotate(0) translate(4 711)">
<title>ArchitectureDiagram</title>
<polygon fill="white" stroke="none" points="-4,4 -4,-711 600,-711 600,4 -4,4"/>
<text text-anchor="middle" x="298" y="-7.8" font-family="Times,serif" font-size="14.00">ArchitectureDiagram</text>
<g id="clust1" class="cluster">
<title>clusterArchitecture</title>
<polygon fill="lightyellow" stroke="#eedd82" points="8,-87 8,-643 588,-643 588,-87 8,-87"/>
</g>
<!-- org.idp.server.basic -->
<g id="node1" class="node">
<title>org.idp.server.basic</title>
<polygon fill="#eedd82" stroke="black" points="333.5,-131 276.5,-131 276.5,-127 272.5,-127 272.5,-123 276.5,-123 276.5,-103 272.5,-103 272.5,-99 276.5,-99 276.5,-95 333.5,-95 333.5,-131"/>
<polyline fill="none" stroke="black" points="276.5,-127 280.5,-127 280.5,-123 276.5,-123"/>
<polyline fill="none" stroke="black" points="276.5,-103 280.5,-103 280.5,-99 276.5,-99"/>
<text text-anchor="middle" x="305" y="-108" font-family="Times,serif" font-size="20.00">basic</text>
</g>
<!-- com.fasterxml -->
<g id="node13" class="node">
<title>com.fasterxml</title>
<polygon fill="lightgrey" stroke="black" points="296,-59 200,-59 200,-55 196,-55 196,-51 200,-51 200,-31 196,-31 196,-27 200,-27 200,-23 296,-23 296,-59"/>
<polyline fill="none" stroke="black" points="200,-55 204,-55 204,-51 200,-51"/>
<polyline fill="none" stroke="black" points="200,-31 204,-31 204,-27 200,-27"/>
<text text-anchor="middle" x="248" y="-37.3" font-family="Times,serif" font-size="14.00">com.fasterxml</text>
</g>
<!-- org.idp.server.basic&#45;&gt;com.fasterxml -->
<g id="edge7" class="edge">
<title>org.idp.server.basic&#45;&gt;com.fasterxml</title>
<path fill="none" stroke="black" d="M286.25,-94.83C286.25,-94.83 286.25,-70.93 286.25,-70.93"/>
<polygon fill="black" stroke="black" points="289.75,-70.93 286.25,-60.93 282.75,-70.93 289.75,-70.93"/>
</g>
<!-- com.nimbusds -->
<g id="node15" class="node">
<title>com.nimbusds</title>
<polygon fill="lightgrey" stroke="black" points="411.5,-59 314.5,-59 314.5,-55 310.5,-55 310.5,-51 314.5,-51 314.5,-31 310.5,-31 310.5,-27 314.5,-27 314.5,-23 411.5,-23 411.5,-59"/>
<polyline fill="none" stroke="black" points="314.5,-55 318.5,-55 318.5,-51 314.5,-51"/>
<polyline fill="none" stroke="black" points="314.5,-31 318.5,-31 318.5,-27 314.5,-27"/>
<text text-anchor="middle" x="363" y="-37.3" font-family="Times,serif" font-size="14.00">com.nimbusds</text>
</g>
<!-- org.idp.server.basic&#45;&gt;com.nimbusds -->
<g id="edge31" class="edge">
<title>org.idp.server.basic&#45;&gt;com.nimbusds</title>
<path fill="none" stroke="black" d="M324,-94.83C324,-94.83 324,-70.93 324,-70.93"/>
<polygon fill="black" stroke="black" points="327.5,-70.93 324,-60.93 320.5,-70.93 327.5,-70.93"/>
</g>
<!-- org.idp.server.ciba -->
<g id="node2" class="node">
<title>org.idp.server.ciba</title>
<polygon fill="#eedd82" stroke="black" points="540,-347 486,-347 486,-343 482,-343 482,-339 486,-339 486,-319 482,-319 482,-315 486,-315 486,-311 540,-311 540,-347"/>
<polyline fill="none" stroke="black" points="486,-343 490,-343 490,-339 486,-339"/>
<polyline fill="none" stroke="black" points="486,-319 490,-319 490,-315 486,-315"/>
<text text-anchor="middle" x="513" y="-324" font-family="Times,serif" font-size="20.00">ciba</text>
</g>
<!-- org.idp.server.configuration -->
<g id="node4" class="node">
<title>org.idp.server.configuration</title>
<polygon fill="#eedd82" stroke="black" points="448,-275 326,-275 326,-271 322,-271 322,-267 326,-267 326,-247 322,-247 322,-243 326,-243 326,-239 448,-239 448,-275"/>
<polyline fill="none" stroke="black" points="326,-271 330,-271 330,-267 326,-267"/>
<polyline fill="none" stroke="black" points="326,-247 330,-247 330,-243 326,-243"/>
<text text-anchor="middle" x="387" y="-252" font-family="Times,serif" font-size="20.00">configuration</text>
</g>
<!-- org.idp.server.ciba&#45;&gt;org.idp.server.configuration -->
<g id="edge4" class="edge">
<title>org.idp.server.ciba&#45;&gt;org.idp.server.configuration</title>
<path fill="none" stroke="black" d="M504,-310.62C504,-291.09 504,-263 504,-263 504,-263 459.75,-263 459.75,-263"/>
<polygon fill="black" stroke="black" points="459.75,-259.5 449.75,-263 459.75,-266.5 459.75,-259.5"/>
</g>
<!-- org.idp.server.type -->
<g id="node11" class="node">
<title>org.idp.server.type</title>
<polygon fill="#eedd82" stroke="black" points="414,-203 360,-203 360,-199 356,-199 356,-195 360,-195 360,-175 356,-175 356,-171 360,-171 360,-167 414,-167 414,-203"/>
<polyline fill="none" stroke="black" points="360,-199 364,-199 364,-195 360,-195"/>
<polyline fill="none" stroke="black" points="360,-175 364,-175 364,-171 360,-171"/>
<text text-anchor="middle" x="387" y="-180" font-family="Times,serif" font-size="20.00">type</text>
</g>
<!-- org.idp.server.ciba&#45;&gt;org.idp.server.type -->
<g id="edge8" class="edge">
<title>org.idp.server.ciba&#45;&gt;org.idp.server.type</title>
<path fill="none" stroke="black" d="M522,-310.57C522,-272.35 522,-188 522,-188 522,-188 425.83,-188 425.83,-188"/>
<polygon fill="black" stroke="black" points="425.83,-184.5 415.83,-188 425.83,-191.5 425.83,-184.5"/>
</g>
<!-- org.idp.server.clientauthenticator -->
<g id="node3" class="node">
<title>org.idp.server.clientauthenticator</title>
<polygon fill="#eedd82" stroke="black" points="499.5,-419 336.5,-419 336.5,-415 332.5,-415 332.5,-411 336.5,-411 336.5,-391 332.5,-391 332.5,-387 336.5,-387 336.5,-383 499.5,-383 499.5,-419"/>
<polyline fill="none" stroke="black" points="336.5,-415 340.5,-415 340.5,-411 336.5,-411"/>
<polyline fill="none" stroke="black" points="336.5,-391 340.5,-391 340.5,-387 336.5,-387"/>
<text text-anchor="middle" x="418" y="-396" font-family="Times,serif" font-size="20.00">clientauthenticator</text>
</g>
<!-- org.idp.server.clientauthenticator&#45;&gt;org.idp.server.configuration -->
<g id="edge37" class="edge">
<title>org.idp.server.clientauthenticator&#45;&gt;org.idp.server.configuration</title>
<path fill="none" stroke="black" d="M392.25,-382.76C392.25,-382.76 392.25,-286.6 392.25,-286.6"/>
<polygon fill="black" stroke="black" points="395.75,-286.6 392.25,-276.6 388.75,-286.6 395.75,-286.6"/>
</g>
<!-- org.idp.server.clientauthenticator&#45;&gt;org.idp.server.type -->
<g id="edge10" class="edge">
<title>org.idp.server.clientauthenticator&#45;&gt;org.idp.server.type</title>
<path fill="none" stroke="black" d="M467,-382.72C467,-332.3 467,-195 467,-195 467,-195 425.6,-195 425.6,-195"/>
<polygon fill="black" stroke="black" points="425.6,-191.5 415.6,-195 425.6,-198.5 425.6,-191.5"/>
</g>
<!-- org.idp.server.configuration&#45;&gt;org.idp.server.basic -->
<g id="edge33" class="edge">
<title>org.idp.server.configuration&#45;&gt;org.idp.server.basic</title>
<path fill="none" stroke="black" d="M328.5,-238.76C328.5,-238.76 328.5,-142.6 328.5,-142.6"/>
<polygon fill="black" stroke="black" points="332,-142.6 328.5,-132.6 325,-142.6 332,-142.6"/>
</g>
<!-- org.idp.server.configuration&#45;&gt;org.idp.server.type -->
<g id="edge1" class="edge">
<title>org.idp.server.configuration&#45;&gt;org.idp.server.type</title>
<path fill="none" stroke="black" d="M387,-238.83C387,-238.83 387,-214.93 387,-214.93"/>
<polygon fill="black" stroke="black" points="390.5,-214.93 387,-204.93 383.5,-214.93 390.5,-214.93"/>
</g>
<!-- org.idp.server.grantmangment -->
<g id="node5" class="node">
<title>org.idp.server.grantmangment</title>
<polygon fill="#eedd82" stroke="black" points="297.5,-419 156.5,-419 156.5,-415 152.5,-415 152.5,-411 156.5,-411 156.5,-391 152.5,-391 152.5,-387 156.5,-387 156.5,-383 297.5,-383 297.5,-419"/>
<polyline fill="none" stroke="black" points="156.5,-415 160.5,-415 160.5,-411 156.5,-411"/>
<polyline fill="none" stroke="black" points="156.5,-391 160.5,-391 160.5,-387 156.5,-387"/>
<text text-anchor="middle" x="227" y="-396" font-family="Times,serif" font-size="20.00">grantmangment</text>
</g>
<!-- org.idp.server.oauth -->
<g id="node7" class="node">
<title>org.idp.server.oauth</title>
<polygon fill="#eedd82" stroke="black" points="327,-347 267,-347 267,-343 263,-343 263,-339 267,-339 267,-319 263,-319 263,-315 267,-315 267,-311 327,-311 327,-347"/>
<polyline fill="none" stroke="black" points="267,-343 271,-343 271,-339 267,-339"/>
<polyline fill="none" stroke="black" points="267,-319 271,-319 271,-315 267,-315"/>
<text text-anchor="middle" x="297" y="-324" font-family="Times,serif" font-size="20.00">oauth</text>
</g>
<!-- org.idp.server.grantmangment&#45;&gt;org.idp.server.oauth -->
<g id="edge20" class="edge">
<title>org.idp.server.grantmangment&#45;&gt;org.idp.server.oauth</title>
<path fill="none" stroke="black" d="M282.25,-382.83C282.25,-382.83 282.25,-358.93 282.25,-358.93"/>
<polygon fill="black" stroke="black" points="285.75,-358.93 282.25,-348.93 278.75,-358.93 285.75,-358.93"/>
</g>
<!-- org.idp.server.handler -->
<g id="node6" class="node">
<title>org.idp.server.handler</title>
<polygon fill="#eedd82" stroke="black" points="557,-635 481,-635 481,-631 477,-631 477,-627 481,-627 481,-607 477,-607 477,-603 481,-603 481,-599 557,-599 557,-635"/>
<polyline fill="none" stroke="black" points="481,-631 485,-631 485,-627 481,-627"/>
<polyline fill="none" stroke="black" points="481,-607 485,-607 485,-603 481,-603"/>
<text text-anchor="middle" x="519" y="-612" font-family="Times,serif" font-size="20.00">handler</text>
</g>
<!-- org.idp.server.handler&#45;&gt;org.idp.server.basic -->
<g id="edge9" class="edge">
<title>org.idp.server.handler&#45;&gt;org.idp.server.basic</title>
<path fill="none" stroke="black" d="M552.75,-598.76C552.75,-508.41 552.75,-113 552.75,-113 552.75,-113 345.42,-113 345.42,-113"/>
<polygon fill="black" stroke="black" points="345.42,-109.5 335.42,-113 345.42,-116.5 345.42,-109.5"/>
</g>
<!-- org.idp.server.handler&#45;&gt;org.idp.server.ciba -->
<g id="edge2" class="edge">
<title>org.idp.server.handler&#45;&gt;org.idp.server.ciba</title>
<path fill="none" stroke="black" d="M519.75,-598.55C519.75,-598.55 519.75,-358.81 519.75,-358.81"/>
<polygon fill="black" stroke="black" points="523.25,-358.81 519.75,-348.81 516.25,-358.81 523.25,-358.81"/>
</g>
<!-- org.idp.server.handler&#45;&gt;org.idp.server.clientauthenticator -->
<g id="edge32" class="edge">
<title>org.idp.server.handler&#45;&gt;org.idp.server.clientauthenticator</title>
<path fill="none" stroke="black" d="M496.42,-598.58C496.42,-598.58 496.42,-430.88 496.42,-430.88"/>
<polygon fill="black" stroke="black" points="499.92,-430.88 496.42,-420.88 492.92,-430.88 499.92,-430.88"/>
</g>
<!-- org.idp.server.handler&#45;&gt;org.idp.server.configuration -->
<g id="edge16" class="edge">
<title>org.idp.server.handler&#45;&gt;org.idp.server.configuration</title>
<path fill="none" stroke="black" d="M544.25,-598.6C544.25,-524.38 544.25,-251 544.25,-251 544.25,-251 459.76,-251 459.76,-251"/>
<polygon fill="black" stroke="black" points="459.76,-247.5 449.76,-251 459.76,-254.5 459.76,-247.5"/>
</g>
<!-- org.idp.server.handler&#45;&gt;org.idp.server.grantmangment -->
<g id="edge3" class="edge">
<title>org.idp.server.handler&#45;&gt;org.idp.server.grantmangment</title>
<path fill="none" stroke="black" d="M484.08,-598.51C484.08,-592.34 484.08,-587 484.08,-587 484.08,-587 290,-587 290,-587 290,-587 290,-430.69 290,-430.69"/>
<polygon fill="black" stroke="black" points="293.5,-430.69 290,-420.69 286.5,-430.69 293.5,-430.69"/>
</g>
<!-- org.idp.server.handler&#45;&gt;org.idp.server.oauth -->
<g id="edge23" class="edge">
<title>org.idp.server.handler&#45;&gt;org.idp.server.oauth</title>
<path fill="none" stroke="black" d="M487.17,-598.94C487.17,-587.56 487.17,-575 487.17,-575 487.17,-575 318.33,-575 318.33,-575 318.33,-575 318.33,-359 318.33,-359"/>
<polygon fill="black" stroke="black" points="321.83,-359 318.33,-349 314.83,-359 321.83,-359"/>
</g>
<!-- org.idp.server.token -->
<g id="node8" class="node">
<title>org.idp.server.token</title>
<polygon fill="#eedd82" stroke="black" points="156,-491 96,-491 96,-487 92,-487 92,-483 96,-483 96,-463 92,-463 92,-459 96,-459 96,-455 156,-455 156,-491"/>
<polyline fill="none" stroke="black" points="96,-487 100,-487 100,-483 96,-483"/>
<polyline fill="none" stroke="black" points="96,-463 100,-463 100,-459 96,-459"/>
<text text-anchor="middle" x="126" y="-468" font-family="Times,serif" font-size="20.00">token</text>
</g>
<!-- org.idp.server.handler&#45;&gt;org.idp.server.token -->
<g id="edge5" class="edge">
<title>org.idp.server.handler&#45;&gt;org.idp.server.token</title>
<path fill="none" stroke="black" d="M493.33,-598.57C493.33,-560.35 493.33,-476 493.33,-476 493.33,-476 167.89,-476 167.89,-476"/>
<polygon fill="black" stroke="black" points="167.89,-472.5 157.89,-476 167.89,-479.5 167.89,-472.5"/>
</g>
<!-- org.idp.server.handler&#45;&gt;org.idp.server.type -->
<g id="edge29" class="edge">
<title>org.idp.server.handler&#45;&gt;org.idp.server.type</title>
<path fill="none" stroke="black" d="M548.5,-598.54C548.5,-515.56 548.5,-181 548.5,-181 548.5,-181 425.91,-181 425.91,-181"/>
<polygon fill="black" stroke="black" points="425.91,-177.5 415.91,-181 425.91,-184.5 425.91,-177.5"/>
</g>
<!-- org.idp.server.userinfo -->
<g id="node12" class="node">
<title>org.idp.server.userinfo</title>
<polygon fill="#eedd82" stroke="black" points="159.5,-563 78.5,-563 78.5,-559 74.5,-559 74.5,-555 78.5,-555 78.5,-535 74.5,-535 74.5,-531 78.5,-531 78.5,-527 159.5,-527 159.5,-563"/>
<polyline fill="none" stroke="black" points="78.5,-559 82.5,-559 82.5,-555 78.5,-555"/>
<polyline fill="none" stroke="black" points="78.5,-535 82.5,-535 82.5,-531 78.5,-531"/>
<text text-anchor="middle" x="119" y="-540" font-family="Times,serif" font-size="20.00">userinfo</text>
</g>
<!-- org.idp.server.handler&#45;&gt;org.idp.server.userinfo -->
<g id="edge14" class="edge">
<title>org.idp.server.handler&#45;&gt;org.idp.server.userinfo</title>
<path fill="none" stroke="black" d="M490.25,-598.62C490.25,-579.09 490.25,-551 490.25,-551 490.25,-551 171.31,-551 171.31,-551"/>
<polygon fill="black" stroke="black" points="171.31,-547.5 161.31,-551 171.31,-554.5 171.31,-547.5"/>
</g>
<!-- org.idp.server.oauth&#45;&gt;org.idp.server.basic -->
<g id="edge21" class="edge">
<title>org.idp.server.oauth&#45;&gt;org.idp.server.basic</title>
<path fill="none" stroke="black" d="M293,-310.58C293,-310.58 293,-142.88 293,-142.88"/>
<polygon fill="black" stroke="black" points="296.5,-142.88 293,-132.88 289.5,-142.88 296.5,-142.88"/>
</g>
<!-- org.idp.server.oauth&#45;&gt;org.idp.server.configuration -->
<g id="edge18" class="edge">
<title>org.idp.server.oauth&#45;&gt;org.idp.server.configuration</title>
<path fill="none" stroke="black" d="M327.11,-329C329,-329 330.17,-329 330.17,-329 330.17,-329 330.17,-286.68 330.17,-286.68"/>
<polygon fill="black" stroke="black" points="333.67,-286.68 330.17,-276.68 326.67,-286.68 333.67,-286.68"/>
</g>
<!-- org.idp.server.oauth&#45;&gt;org.idp.server.type -->
<g id="edge34" class="edge">
<title>org.idp.server.oauth&#45;&gt;org.idp.server.type</title>
<path fill="none" stroke="black" d="M309.5,-310.65C309.5,-273.95 309.5,-195 309.5,-195 309.5,-195 348.38,-195 348.38,-195"/>
<polygon fill="black" stroke="black" points="348.38,-198.5 358.38,-195 348.38,-191.5 348.38,-198.5"/>
</g>
<!-- org.idp.server.token&#45;&gt;org.idp.server.basic -->
<g id="edge27" class="edge">
<title>org.idp.server.token&#45;&gt;org.idp.server.basic</title>
<path fill="none" stroke="black" d="M108,-454.96C108,-382.82 108,-119 108,-119 108,-119 264.84,-119 264.84,-119"/>
<polygon fill="black" stroke="black" points="264.84,-122.5 274.84,-119 264.84,-115.5 264.84,-122.5"/>
</g>
<!-- org.idp.server.token&#45;&gt;org.idp.server.clientauthenticator -->
<g id="edge28" class="edge">
<title>org.idp.server.token&#45;&gt;org.idp.server.clientauthenticator</title>
<path fill="none" stroke="black" d="M156.34,-469C227.62,-469 399.75,-469 399.75,-469 399.75,-469 399.75,-430.74 399.75,-430.74"/>
<polygon fill="black" stroke="black" points="403.25,-430.74 399.75,-420.74 396.25,-430.74 403.25,-430.74"/>
</g>
<!-- org.idp.server.token&#45;&gt;org.idp.server.configuration -->
<g id="edge35" class="edge">
<title>org.idp.server.token&#45;&gt;org.idp.server.configuration</title>
<path fill="none" stroke="black" d="M156.15,-462C213.65,-462 333.33,-462 333.33,-462 333.33,-462 333.33,-286.71 333.33,-286.71"/>
<polygon fill="black" stroke="black" points="336.83,-286.71 333.33,-276.71 329.83,-286.71 336.83,-286.71"/>
</g>
<!-- org.idp.server.token&#45;&gt;org.idp.server.grantmangment -->
<g id="edge15" class="edge">
<title>org.idp.server.token&#45;&gt;org.idp.server.grantmangment</title>
<path fill="none" stroke="black" d="M144,-454.83C144,-433.5 144,-401 144,-401 144,-401 145.22,-401 145.22,-401"/>
<polygon fill="black" stroke="black" points="144.73,-404.5 154.73,-401 144.73,-397.5 144.73,-404.5"/>
</g>
<!-- org.idp.server.token&#45;&gt;org.idp.server.oauth -->
<g id="edge19" class="edge">
<title>org.idp.server.token&#45;&gt;org.idp.server.oauth</title>
<path fill="none" stroke="black" d="M132,-454.67C132,-417.14 132,-335 132,-335 132,-335 255.22,-335 255.22,-335"/>
<polygon fill="black" stroke="black" points="255.22,-338.5 265.22,-335 255.22,-331.5 255.22,-338.5"/>
</g>
<!-- org.idp.server.token&#45;&gt;org.idp.server.type -->
<g id="edge17" class="edge">
<title>org.idp.server.token&#45;&gt;org.idp.server.type</title>
<path fill="none" stroke="black" d="M120,-454.74C120,-391.84 120,-188 120,-188 120,-188 348.42,-188 348.42,-188"/>
<polygon fill="black" stroke="black" points="348.42,-191.5 358.42,-188 348.42,-184.5 348.42,-191.5"/>
</g>
<!-- org.idp.server.tokenintrospection -->
<g id="node9" class="node">
<title>org.idp.server.tokenintrospection</title>
<polygon fill="#eedd82" stroke="black" points="463,-635 301,-635 301,-631 297,-631 297,-627 301,-627 301,-607 297,-607 297,-603 301,-603 301,-599 463,-599 463,-635"/>
<polyline fill="none" stroke="black" points="301,-631 305,-631 305,-627 301,-627"/>
<polyline fill="none" stroke="black" points="301,-607 305,-607 305,-603 301,-603"/>
<text text-anchor="middle" x="382" y="-612" font-family="Times,serif" font-size="20.00">tokenintrospection</text>
</g>
<!-- org.idp.server.tokenrevocation -->
<g id="node10" class="node">
<title>org.idp.server.tokenrevocation</title>
<polygon fill="#eedd82" stroke="black" points="282.5,-635 139.5,-635 139.5,-631 135.5,-631 135.5,-627 139.5,-627 139.5,-607 135.5,-607 135.5,-603 139.5,-603 139.5,-599 282.5,-599 282.5,-635"/>
<polyline fill="none" stroke="black" points="139.5,-631 143.5,-631 143.5,-627 139.5,-627"/>
<polyline fill="none" stroke="black" points="139.5,-607 143.5,-607 143.5,-603 139.5,-603"/>
<text text-anchor="middle" x="211" y="-612" font-family="Times,serif" font-size="20.00">tokenrevocation</text>
</g>
<!-- org.idp.server.type&#45;&gt;org.idp.server.basic -->
<g id="edge26" class="edge">
<title>org.idp.server.type&#45;&gt;org.idp.server.basic</title>
<path fill="none" stroke="black" d="M359.66,-174C345.44,-174 331,-174 331,-174 331,-174 331,-142.82 331,-142.82"/>
<polygon fill="black" stroke="black" points="334.5,-142.82 331,-132.82 327.5,-142.82 334.5,-142.82"/>
</g>
<!-- org.idp.server.userinfo&#45;&gt;org.idp.server.basic -->
<g id="edge30" class="edge">
<title>org.idp.server.userinfo&#45;&gt;org.idp.server.basic</title>
<path fill="none" stroke="black" d="M84.33,-526.74C84.33,-443.84 84.33,-107 84.33,-107 84.33,-107 264.64,-107 264.64,-107"/>
<polygon fill="black" stroke="black" points="264.64,-110.5 274.64,-107 264.64,-103.5 264.64,-110.5"/>
</g>
<!-- org.idp.server.userinfo&#45;&gt;org.idp.server.oauth -->
<g id="edge6" class="edge">
<title>org.idp.server.userinfo&#45;&gt;org.idp.server.oauth</title>
<path fill="none" stroke="black" d="M159.9,-539C215.93,-539 309.67,-539 309.67,-539 309.67,-539 309.67,-358.78 309.67,-358.78"/>
<polygon fill="black" stroke="black" points="313.17,-358.78 309.67,-348.78 306.17,-358.78 313.17,-358.78"/>
</g>
<!-- org.idp.server.userinfo&#45;&gt;org.idp.server.token -->
<g id="edge22" class="edge">
<title>org.idp.server.userinfo&#45;&gt;org.idp.server.token</title>
<path fill="none" stroke="black" d="M126,-526.83C126,-526.83 126,-502.93 126,-502.93"/>
<polygon fill="black" stroke="black" points="129.5,-502.93 126,-492.93 122.5,-502.93 129.5,-502.93"/>
</g>
<!-- org.idp.server.userinfo&#45;&gt;org.idp.server.type -->
<g id="edge13" class="edge">
<title>org.idp.server.userinfo&#45;&gt;org.idp.server.type</title>
<path fill="none" stroke="black" d="M90.17,-526.7C90.17,-452.89 90.17,-181 90.17,-181 90.17,-181 348.09,-181 348.09,-181"/>
<polygon fill="black" stroke="black" points="348.09,-184.5 358.09,-181 348.09,-177.5 348.09,-184.5"/>
</g>
<!-- org.idp -->
<g id="node14" class="node">
<title>org.idp</title>
<polygon fill="lightgrey" stroke="black" points="547,-707 491,-707 491,-703 487,-703 487,-699 491,-699 491,-679 487,-679 487,-675 491,-675 491,-671 547,-671 547,-707"/>
<polyline fill="none" stroke="black" points="491,-703 495,-703 495,-699 491,-699"/>
<polyline fill="none" stroke="black" points="491,-679 495,-679 495,-675 491,-675"/>
<text text-anchor="middle" x="519" y="-685.3" font-family="Times,serif" font-size="14.00">org.idp</text>
</g>
<!-- org.idp&#45;&gt;org.idp.server.handler -->
<g id="edge24" class="edge">
<title>org.idp&#45;&gt;org.idp.server.handler</title>
<path fill="none" stroke="black" d="M519,-670.83C519,-670.83 519,-646.93 519,-646.93"/>
<polygon fill="black" stroke="black" points="522.5,-646.93 519,-636.93 515.5,-646.93 522.5,-646.93"/>
</g>
<!-- org.idp&#45;&gt;org.idp.server.oauth -->
<g id="edge11" class="edge">
<title>org.idp&#45;&gt;org.idp.server.oauth</title>
<path fill="none" stroke="black" d="M490.66,-698C390.7,-698 60.5,-698 60.5,-698 60.5,-698 60.5,-323 60.5,-323 60.5,-323 255.05,-323 255.05,-323"/>
<polygon fill="black" stroke="black" points="255.05,-326.5 265.05,-323 255.05,-319.5 255.05,-326.5"/>
</g>
<!-- org.idp&#45;&gt;org.idp.server.token -->
<g id="edge36" class="edge">
<title>org.idp&#45;&gt;org.idp.server.token</title>
<path fill="none" stroke="black" d="M490.58,-680C480.68,-680 472,-680 472,-680 472,-680 472,-483 472,-483 472,-483 167.92,-483 167.92,-483"/>
<polygon fill="black" stroke="black" points="167.92,-479.5 157.92,-483 167.92,-486.5 167.92,-479.5"/>
</g>
<!-- org.idp&#45;&gt;org.idp.server.type -->
<g id="edge12" class="edge">
<title>org.idp&#45;&gt;org.idp.server.type</title>
<path fill="none" stroke="black" d="M547.33,-689C561.22,-689 575,-689 575,-689 575,-689 575,-174 575,-174 575,-174 425.85,-174 425.85,-174"/>
<polygon fill="black" stroke="black" points="425.85,-170.5 415.85,-174 425.85,-177.5 425.85,-170.5"/>
</g>
<!-- org.idp&#45;&gt;org.idp.server.userinfo -->
<g id="edge25" class="edge">
<title>org.idp&#45;&gt;org.idp.server.userinfo</title>
<path fill="none" stroke="black" d="M490.82,-689C398.19,-689 109,-689 109,-689 109,-689 109,-574.75 109,-574.75"/>
<polygon fill="black" stroke="black" points="112.5,-574.75 109,-564.75 105.5,-574.75 112.5,-574.75"/>
</g>
</g>
</svg>
