<?xml version="1.0" encoding="UTF-8" standalone="no"?>
<!DOCTYPE svg PUBLIC "-//W3C//DTD SVG 1.1//EN"
 "http://www.w3.org/Graphics/SVG/1.1/DTD/svg11.dtd">
<!-- Generated by graphviz version 7.1.0 (20230121.1956)
 -->
<!-- Title: ArchitectureDiagram Pages: 1 -->
<svg width="474pt" height="571pt"
 viewBox="0.00 0.00 474.00 571.00" xmlns="http://www.w3.org/2000/svg" xmlns:xlink="http://www.w3.org/1999/xlink">
<g id="graph0" class="graph" transform="scale(1 1) rotate(0) translate(4 567)">
<title>ArchitectureDiagram</title>
<polygon fill="white" stroke="none" points="-4,4 -4,-567 470,-567 470,4 -4,4"/>
<text text-anchor="middle" x="233" y="-7.8" font-family="Times,serif" font-size="14.00">ArchitectureDiagram</text>
<g id="clust1" class="cluster">
<title>clusterArchitecture</title>
<polygon fill="lightyellow" stroke="#eedd82" points="8,-87 8,-499 458,-499 458,-87 8,-87"/>
</g>
<!-- org.idp.server.basic -->
<g id="node1" class="node">
<title>org.idp.server.basic</title>
<polygon fill="#eedd82" stroke="black" points="318.5,-131 261.5,-131 261.5,-127 257.5,-127 257.5,-123 261.5,-123 261.5,-103 257.5,-103 257.5,-99 261.5,-99 261.5,-95 318.5,-95 318.5,-131"/>
<polyline fill="none" stroke="black" points="261.5,-127 265.5,-127 265.5,-123 261.5,-123"/>
<polyline fill="none" stroke="black" points="261.5,-103 265.5,-103 265.5,-99 261.5,-99"/>
<text text-anchor="middle" x="290" y="-108" font-family="Times,serif" font-size="20.00">basic</text>
</g>
<!-- com.fasterxml -->
<g id="node10" class="node">
<title>com.fasterxml</title>
<polygon fill="lightgrey" stroke="black" points="281,-59 185,-59 185,-55 181,-55 181,-51 185,-51 185,-31 181,-31 181,-27 185,-27 185,-23 281,-23 281,-59"/>
<polyline fill="none" stroke="black" points="185,-55 189,-55 189,-51 185,-51"/>
<polyline fill="none" stroke="black" points="185,-31 189,-31 189,-27 185,-27"/>
<text text-anchor="middle" x="233" y="-37.3" font-family="Times,serif" font-size="14.00">com.fasterxml</text>
</g>
<!-- org.idp.server.basic&#45;&gt;com.fasterxml -->
<g id="edge5" class="edge">
<title>org.idp.server.basic&#45;&gt;com.fasterxml</title>
<path fill="none" stroke="black" d="M271.25,-94.83C271.25,-94.83 271.25,-70.93 271.25,-70.93"/>
<polygon fill="black" stroke="black" points="274.75,-70.93 271.25,-60.93 267.75,-70.93 274.75,-70.93"/>
</g>
<!-- com.nimbusds -->
<g id="node12" class="node">
<title>com.nimbusds</title>
<polygon fill="lightgrey" stroke="black" points="396.5,-59 299.5,-59 299.5,-55 295.5,-55 295.5,-51 299.5,-51 299.5,-31 295.5,-31 295.5,-27 299.5,-27 299.5,-23 396.5,-23 396.5,-59"/>
<polyline fill="none" stroke="black" points="299.5,-55 303.5,-55 303.5,-51 299.5,-51"/>
<polyline fill="none" stroke="black" points="299.5,-31 303.5,-31 303.5,-27 299.5,-27"/>
<text text-anchor="middle" x="348" y="-37.3" font-family="Times,serif" font-size="14.00">com.nimbusds</text>
</g>
<!-- org.idp.server.basic&#45;&gt;com.nimbusds -->
<g id="edge22" class="edge">
<title>org.idp.server.basic&#45;&gt;com.nimbusds</title>
<path fill="none" stroke="black" d="M309,-94.83C309,-94.83 309,-70.93 309,-70.93"/>
<polygon fill="black" stroke="black" points="312.5,-70.93 309,-60.93 305.5,-70.93 312.5,-70.93"/>
</g>
<!-- org.idp.server.ciba -->
<g id="node2" class="node">
<title>org.idp.server.ciba</title>
<polygon fill="#eedd82" stroke="black" points="110,-347 56,-347 56,-343 52,-343 52,-339 56,-339 56,-319 52,-319 52,-315 56,-315 56,-311 110,-311 110,-347"/>
<polyline fill="none" stroke="black" points="56,-343 60,-343 60,-339 56,-339"/>
<polyline fill="none" stroke="black" points="56,-319 60,-319 60,-315 56,-315"/>
<text text-anchor="middle" x="83" y="-324" font-family="Times,serif" font-size="20.00">ciba</text>
</g>
<!-- org.idp.server.configuration -->
<g id="node4" class="node">
<title>org.idp.server.configuration</title>
<polygon fill="#eedd82" stroke="black" points="271,-275 149,-275 149,-271 145,-271 145,-267 149,-267 149,-247 145,-247 145,-243 149,-243 149,-239 271,-239 271,-275"/>
<polyline fill="none" stroke="black" points="149,-271 153,-271 153,-267 149,-267"/>
<polyline fill="none" stroke="black" points="149,-247 153,-247 153,-243 149,-243"/>
<text text-anchor="middle" x="210" y="-252" font-family="Times,serif" font-size="20.00">configuration</text>
</g>
<!-- org.idp.server.ciba&#45;&gt;org.idp.server.configuration -->
<g id="edge3" class="edge">
<title>org.idp.server.ciba&#45;&gt;org.idp.server.configuration</title>
<path fill="none" stroke="black" d="M110.41,-329C130.94,-329 155.5,-329 155.5,-329 155.5,-329 155.5,-286.68 155.5,-286.68"/>
<polygon fill="black" stroke="black" points="159,-286.68 155.5,-276.68 152,-286.68 159,-286.68"/>
</g>
<!-- org.idp.server.type -->
<g id="node9" class="node">
<title>org.idp.server.type</title>
<polygon fill="#eedd82" stroke="black" points="317,-203 263,-203 263,-199 259,-199 259,-195 263,-195 263,-175 259,-175 259,-171 263,-171 263,-167 317,-167 317,-203"/>
<polyline fill="none" stroke="black" points="263,-199 267,-199 267,-195 263,-195"/>
<polyline fill="none" stroke="black" points="263,-175 267,-175 267,-171 263,-171"/>
<text text-anchor="middle" x="290" y="-180" font-family="Times,serif" font-size="20.00">type</text>
</g>
<!-- org.idp.server.ciba&#45;&gt;org.idp.server.type -->
<g id="edge6" class="edge">
<title>org.idp.server.ciba&#45;&gt;org.idp.server.type</title>
<path fill="none" stroke="black" d="M83,-310.76C83,-272.01 83,-185 83,-185 83,-185 251,-185 251,-185"/>
<polygon fill="black" stroke="black" points="251,-188.5 261,-185 251,-181.5 251,-188.5"/>
</g>
<!-- org.idp.server.clientauthenticator -->
<g id="node3" class="node">
<title>org.idp.server.clientauthenticator</title>
<polygon fill="#eedd82" stroke="black" points="331.5,-347 168.5,-347 168.5,-343 164.5,-343 164.5,-339 168.5,-339 168.5,-319 164.5,-319 164.5,-315 168.5,-315 168.5,-311 331.5,-311 331.5,-347"/>
<polyline fill="none" stroke="black" points="168.5,-343 172.5,-343 172.5,-339 168.5,-339"/>
<polyline fill="none" stroke="black" points="168.5,-319 172.5,-319 172.5,-315 168.5,-315"/>
<text text-anchor="middle" x="250" y="-324" font-family="Times,serif" font-size="20.00">clientauthenticator</text>
</g>
<!-- org.idp.server.clientauthenticator&#45;&gt;org.idp.server.configuration -->
<g id="edge27" class="edge">
<title>org.idp.server.clientauthenticator&#45;&gt;org.idp.server.configuration</title>
<path fill="none" stroke="black" d="M219.75,-310.83C219.75,-310.83 219.75,-286.93 219.75,-286.93"/>
<polygon fill="black" stroke="black" points="223.25,-286.93 219.75,-276.93 216.25,-286.93 223.25,-286.93"/>
</g>
<!-- org.idp.server.clientauthenticator&#45;&gt;org.idp.server.type -->
<g id="edge8" class="edge">
<title>org.idp.server.clientauthenticator&#45;&gt;org.idp.server.type</title>
<path fill="none" stroke="black" d="M294,-310.76C294,-310.76 294,-214.6 294,-214.6"/>
<polygon fill="black" stroke="black" points="297.5,-214.6 294,-204.6 290.5,-214.6 297.5,-214.6"/>
</g>
<!-- org.idp.server.configuration&#45;&gt;org.idp.server.basic -->
<g id="edge23" class="edge">
<title>org.idp.server.configuration&#45;&gt;org.idp.server.basic</title>
<path fill="none" stroke="black" d="M223.25,-238.76C223.25,-200.01 223.25,-113 223.25,-113 223.25,-113 249.79,-113 249.79,-113"/>
<polygon fill="black" stroke="black" points="249.79,-116.5 259.79,-113 249.79,-109.5 249.79,-116.5"/>
</g>
<!-- org.idp.server.configuration&#45;&gt;org.idp.server.type -->
<g id="edge1" class="edge">
<title>org.idp.server.configuration&#45;&gt;org.idp.server.type</title>
<path fill="none" stroke="black" d="M267,-238.83C267,-238.83 267,-214.93 267,-214.93"/>
<polygon fill="black" stroke="black" points="270.5,-214.93 267,-204.93 263.5,-214.93 270.5,-214.93"/>
</g>
<!-- org.idp.server.handler -->
<g id="node5" class="node">
<title>org.idp.server.handler</title>
<polygon fill="#eedd82" stroke="black" points="272,-491 196,-491 196,-487 192,-487 192,-483 196,-483 196,-463 192,-463 192,-459 196,-459 196,-455 272,-455 272,-491"/>
<polyline fill="none" stroke="black" points="196,-487 200,-487 200,-483 196,-483"/>
<polyline fill="none" stroke="black" points="196,-463 200,-463 200,-459 196,-459"/>
<text text-anchor="middle" x="234" y="-468" font-family="Times,serif" font-size="20.00">handler</text>
</g>
<!-- org.idp.server.handler&#45;&gt;org.idp.server.basic -->
<g id="edge7" class="edge">
<title>org.idp.server.handler&#45;&gt;org.idp.server.basic</title>
<path fill="none" stroke="black" d="M272.39,-473C311.2,-473 365.5,-473 365.5,-473 365.5,-473 365.5,-113 365.5,-113 365.5,-113 330.49,-113 330.49,-113"/>
<polygon fill="black" stroke="black" points="330.49,-109.5 320.49,-113 330.49,-116.5 330.49,-109.5"/>
</g>
<!-- org.idp.server.handler&#45;&gt;org.idp.server.ciba -->
<g id="edge2" class="edge">
<title>org.idp.server.handler&#45;&gt;org.idp.server.ciba</title>
<path fill="none" stroke="black" d="M221.33,-454.51C221.33,-448.34 221.33,-443 221.33,-443 221.33,-443 83,-443 83,-443 83,-443 83,-358.83 83,-358.83"/>
<polygon fill="black" stroke="black" points="86.5,-358.83 83,-348.83 79.5,-358.83 86.5,-358.83"/>
</g>
<!-- org.idp.server.handler&#45;&gt;org.idp.server.configuration -->
<g id="edge11" class="edge">
<title>org.idp.server.handler&#45;&gt;org.idp.server.configuration</title>
<path fill="none" stroke="black" d="M246.67,-454.94C246.67,-443.56 246.67,-431 246.67,-431 246.67,-431 162,-431 162,-431 162,-431 162,-286.81 162,-286.81"/>
<polygon fill="black" stroke="black" points="165.5,-286.81 162,-276.81 158.5,-286.81 165.5,-286.81"/>
</g>
<!-- org.idp.server.oauth -->
<g id="node6" class="node">
<title>org.idp.server.oauth</title>
<polygon fill="#eedd82" stroke="black" points="430,-347 370,-347 370,-343 366,-343 366,-339 370,-339 370,-319 366,-319 366,-315 370,-315 370,-311 430,-311 430,-347"/>
<polyline fill="none" stroke="black" points="370,-343 374,-343 374,-339 370,-339"/>
<polyline fill="none" stroke="black" points="370,-319 374,-319 374,-315 370,-315"/>
<text text-anchor="middle" x="400" y="-324" font-family="Times,serif" font-size="20.00">oauth</text>
</g>
<!-- org.idp.server.handler&#45;&gt;org.idp.server.oauth -->
<g id="edge16" class="edge">
<title>org.idp.server.handler&#45;&gt;org.idp.server.oauth</title>
<path fill="none" stroke="black" d="M272.27,-479C315.43,-479 379.67,-479 379.67,-479 379.67,-479 379.67,-358.91 379.67,-358.91"/>
<polygon fill="black" stroke="black" points="383.17,-358.91 379.67,-348.91 376.17,-358.91 383.17,-358.91"/>
</g>
<!-- org.idp.server.token -->
<g id="node7" class="node">
<title>org.idp.server.token</title>
<polygon fill="#eedd82" stroke="black" points="352,-419 292,-419 292,-415 288,-415 288,-411 292,-411 292,-391 288,-391 288,-387 292,-387 292,-383 352,-383 352,-419"/>
<polyline fill="none" stroke="black" points="292,-415 296,-415 296,-411 292,-411"/>
<polyline fill="none" stroke="black" points="292,-391 296,-391 296,-387 292,-387"/>
<text text-anchor="middle" x="322" y="-396" font-family="Times,serif" font-size="20.00">token</text>
</g>
<!-- org.idp.server.handler&#45;&gt;org.idp.server.token -->
<g id="edge4" class="edge">
<title>org.idp.server.handler&#45;&gt;org.idp.server.token</title>
<path fill="none" stroke="black" d="M272.33,-461C294.28,-461 317.5,-461 317.5,-461 317.5,-461 317.5,-430.84 317.5,-430.84"/>
<polygon fill="black" stroke="black" points="321,-430.84 317.5,-420.84 314,-430.84 321,-430.84"/>
</g>
<!-- org.idp.server.handler&#45;&gt;org.idp.server.type -->
<g id="edge21" class="edge">
<title>org.idp.server.handler&#45;&gt;org.idp.server.type</title>
<path fill="none" stroke="black" d="M272.42,-467C308.35,-467 356.5,-467 356.5,-467 356.5,-467 356.5,-188 356.5,-188 356.5,-188 328.95,-188 328.95,-188"/>
<polygon fill="black" stroke="black" points="328.95,-184.5 318.95,-188 328.95,-191.5 328.95,-184.5"/>
</g>
<!-- org.idp.server.oauth&#45;&gt;org.idp.server.basic -->
<g id="edge15" class="edge">
<title>org.idp.server.oauth&#45;&gt;org.idp.server.basic</title>
<path fill="none" stroke="black" d="M389.88,-310.59C389.88,-256.85 389.88,-104 389.88,-104 389.88,-104 330.4,-104 330.4,-104"/>
<polygon fill="black" stroke="black" points="330.4,-100.5 320.4,-104 330.4,-107.5 330.4,-100.5"/>
</g>
<!-- org.idp.server.oauth&#45;&gt;org.idp.server.configuration -->
<g id="edge13" class="edge">
<title>org.idp.server.oauth&#45;&gt;org.idp.server.configuration</title>
<path fill="none" stroke="black" d="M376.62,-310.52C376.62,-287.45 376.62,-251 376.62,-251 376.62,-251 282.61,-251 282.61,-251"/>
<polygon fill="black" stroke="black" points="282.61,-247.5 272.61,-251 282.61,-254.5 282.61,-247.5"/>
</g>
<!-- org.idp.server.oauth&#45;&gt;org.idp.server.type -->
<g id="edge24" class="edge">
<title>org.idp.server.oauth&#45;&gt;org.idp.server.type</title>
<path fill="none" stroke="black" d="M383.25,-310.61C383.25,-269.55 383.25,-174 383.25,-174 383.25,-174 328.99,-174 328.99,-174"/>
<polygon fill="black" stroke="black" points="328.99,-170.5 318.99,-174 328.99,-177.5 328.99,-170.5"/>
</g>
<!-- org.idp.server.token&#45;&gt;org.idp.server.basic -->
<g id="edge19" class="edge">
<title>org.idp.server.token&#45;&gt;org.idp.server.basic</title>
<path fill="none" stroke="black" d="M343.8,-382.69C343.8,-320.62 343.8,-122 343.8,-122 343.8,-122 330.3,-122 330.3,-122"/>
<polygon fill="black" stroke="black" points="330.3,-118.5 320.3,-122 330.3,-125.5 330.3,-118.5"/>
</g>
<!-- org.idp.server.token&#45;&gt;org.idp.server.clientauthenticator -->
<g id="edge20" class="edge">
<title>org.idp.server.token&#45;&gt;org.idp.server.clientauthenticator</title>
<path fill="none" stroke="black" d="M311.75,-382.83C311.75,-382.83 311.75,-358.93 311.75,-358.93"/>
<polygon fill="black" stroke="black" points="315.25,-358.93 311.75,-348.93 308.25,-358.93 315.25,-358.93"/>
</g>
<!-- org.idp.server.token&#45;&gt;org.idp.server.configuration -->
<g id="edge25" class="edge">
<title>org.idp.server.token&#45;&gt;org.idp.server.configuration</title>
<path fill="none" stroke="black" d="M335.6,-382.67C335.6,-345.14 335.6,-263 335.6,-263 335.6,-263 282.84,-263 282.84,-263"/>
<polygon fill="black" stroke="black" points="282.84,-259.5 272.84,-263 282.84,-266.5 282.84,-259.5"/>
</g>
<!-- org.idp.server.token&#45;&gt;org.idp.server.oauth -->
<g id="edge14" class="edge">
<title>org.idp.server.token&#45;&gt;org.idp.server.oauth</title>
<path fill="none" stroke="black" d="M347.9,-382.83C347.9,-361.5 347.9,-329 347.9,-329 347.9,-329 358.18,-329 358.18,-329"/>
<polygon fill="black" stroke="black" points="358.18,-332.5 368.18,-329 358.18,-325.5 358.18,-332.5"/>
</g>
<!-- org.idp.server.token&#45;&gt;org.idp.server.type -->
<g id="edge12" class="edge">
<title>org.idp.server.token&#45;&gt;org.idp.server.type</title>
<path fill="none" stroke="black" d="M339.7,-382.72C339.7,-332.3 339.7,-195 339.7,-195 339.7,-195 328.98,-195 328.98,-195"/>
<polygon fill="black" stroke="black" points="328.98,-191.5 318.98,-195 328.98,-198.5 328.98,-191.5"/>
</g>
<!-- org.idp.server.tokenintrospection -->
<g id="node8" class="node">
<title>org.idp.server.tokenintrospection</title>
<polygon fill="#eedd82" stroke="black" points="178,-491 16,-491 16,-487 12,-487 12,-483 16,-483 16,-463 12,-463 12,-459 16,-459 16,-455 178,-455 178,-491"/>
<polyline fill="none" stroke="black" points="16,-487 20,-487 20,-483 16,-483"/>
<polyline fill="none" stroke="black" points="16,-463 20,-463 20,-459 16,-459"/>
<text text-anchor="middle" x="97" y="-468" font-family="Times,serif" font-size="20.00">tokenintrospection</text>
</g>
<!-- org.idp.server.type&#45;&gt;org.idp.server.basic -->
<g id="edge18" class="edge">
<title>org.idp.server.type&#45;&gt;org.idp.server.basic</title>
<path fill="none" stroke="black" d="M290,-166.83C290,-166.83 290,-142.93 290,-142.93"/>
<polygon fill="black" stroke="black" points="293.5,-142.93 290,-132.93 286.5,-142.93 293.5,-142.93"/>
</g>
<!-- org.idp -->
<g id="node11" class="node">
<title>org.idp</title>
<polygon fill="lightgrey" stroke="black" points="399,-563 343,-563 343,-559 339,-559 339,-555 343,-555 343,-535 339,-535 339,-531 343,-531 343,-527 399,-527 399,-563"/>
<polyline fill="none" stroke="black" points="343,-559 347,-559 347,-555 343,-555"/>
<polyline fill="none" stroke="black" points="343,-535 347,-535 347,-531 343,-531"/>
<text text-anchor="middle" x="371" y="-541.3" font-family="Times,serif" font-size="14.00">org.idp</text>
</g>
<!-- org.idp&#45;&gt;org.idp.server.handler -->
<g id="edge17" class="edge">
<title>org.idp&#45;&gt;org.idp.server.handler</title>
<path fill="none" stroke="black" d="M346,-526.67C346,-509.03 346,-485 346,-485 346,-485 283.74,-485 283.74,-485"/>
<polygon fill="black" stroke="black" points="283.74,-481.5 273.74,-485 283.74,-488.5 283.74,-481.5"/>
</g>
<!-- org.idp&#45;&gt;org.idp.server.oauth -->
<g id="edge9" class="edge">
<title>org.idp&#45;&gt;org.idp.server.oauth</title>
<path fill="none" stroke="black" d="M389.33,-526.58C389.33,-526.58 389.33,-358.88 389.33,-358.88"/>
<polygon fill="black" stroke="black" points="392.83,-358.88 389.33,-348.88 385.83,-358.88 392.83,-358.88"/>
</g>
<!-- org.idp&#45;&gt;org.idp.server.token -->
<g id="edge26" class="edge">
<title>org.idp&#45;&gt;org.idp.server.token</title>
<path fill="none" stroke="black" d="M349,-526.76C349,-526.76 349,-430.6 349,-430.6"/>
<polygon fill="black" stroke="black" points="352.5,-430.6 349,-420.6 345.5,-430.6 352.5,-430.6"/>
</g>
<!-- org.idp&#45;&gt;org.idp.server.type -->
<g id="edge10" class="edge">
<title>org.idp&#45;&gt;org.idp.server.type</title>
<path fill="none" stroke="black" d="M361,-526.7C361,-452.89 361,-181 361,-181 361,-181 328.76,-181 328.76,-181"/>
<polygon fill="black" stroke="black" points="328.76,-177.5 318.76,-181 328.76,-184.5 328.76,-177.5"/>
</g>
</g>
</svg>
